<?xml version="1.0" ?><svg enable-background="new 0 0 512 512" id="Layer_2" version="1.0" viewBox="0 0 512 512" xml:space="preserve" xmlns="http://www.w3.org/2000/svg" xmlns:xlink="http://www.w3.org/1999/xlink"><g><g><circle cx="256" cy="246" fill="none" r="18.017" stroke="#000000" stroke-linecap="round" stroke-linejoin="round" stroke-miterlimit="10" stroke-width="15"/><path d="    M212.677,206.954c3.015-3.343,6.412-6.336,10.121-8.909" fill="none" stroke="#000000" stroke-linecap="round" stroke-linejoin="round" stroke-miterlimit="10" stroke-width="15"/><path d="    M197.679,246c0-6.289,0.996-12.346,2.838-18.021" fill="none" stroke="#000000" stroke-linecap="round" stroke-linejoin="round" stroke-miterlimit="10" stroke-width="15"/><path d="    M227.084,296.66c-6.81-3.895-12.758-9.124-17.491-15.331" fill="none" stroke="#000000" stroke-linecap="round" stroke-linejoin="round" stroke-miterlimit="10" stroke-width="15"/><path d="    M279.687,299.311c-7.238,3.221-15.253,5.011-23.687,5.011" fill="none" stroke="#000000" stroke-linecap="round" stroke-linejoin="round" stroke-miterlimit="10" stroke-width="15"/><path d="    M301.959,281.908c-0.753,0.962-1.536,1.901-2.346,2.813" fill="none" stroke="#000000" stroke-linecap="round" stroke-linejoin="round" stroke-miterlimit="10" stroke-width="15"/><path d="    M310.73,225.804c2.323,6.293,3.591,13.096,3.591,20.196c0,5.573-0.782,10.963-2.241,16.067" fill="none" stroke="#000000" stroke-linecap="round" stroke-linejoin="round" stroke-miterlimit="10" stroke-width="15"/><path d="    M256,187.679c15.916,0,30.343,6.375,40.866,16.712" fill="none" stroke="#000000" stroke-linecap="round" stroke-linejoin="round" stroke-miterlimit="10" stroke-width="15"/></g><path d="   M230.233,17.56v92.705c0,9.972-1.922,19.852-5.66,29.097l-4.399,10.881c-5.236,12.95-21.311,17.46-32.495,9.092   c-17.896-13.389-35.869-40.694-60.902-60.098C80.977,63.737,61.554,63.414,24.27,16.143" fill="none" stroke="#000000" stroke-linecap="round" stroke-linejoin="round" stroke-miterlimit="10" stroke-width="15"/><path d="   M12.435,65.424c61.117,24.437,84.743,60.363,117.938,90.937c41.773,38.474,43.669,72.863,19.905,97.799   c-20.988,22.022-93.385,40.915-134.233,53.293" fill="none" stroke="#000000" stroke-linecap="round" stroke-linejoin="round" stroke-miterlimit="10" stroke-width="15"/><path d="   M16.045,340.911l114.371-37.816c26.221-8.67,50.467-8.847,68.68,11.914c5.884,6.707,18.669,19.413,23.345,25.902   c20.632,28.63,17.505,152.483,17.505,152.483" fill="none" stroke="#000000" stroke-linecap="round" stroke-linejoin="round" stroke-miterlimit="10" stroke-width="15"/><path d="   M266.553,493.394c0,0-8.823-88.807,10.553-122.149c6.564-11.294,13.691-24.547,20.247-37.137   c13.147-25.246,43.353-36.274,69.702-25.509c6.431,2.627,13.231,5.273,20.195,7.787c61.086,22.053,107.761,61.314,107.761,61.314" fill="none" stroke="#000000" stroke-linecap="round" stroke-linejoin="round" stroke-miterlimit="10" stroke-width="15"/><path d="   M501.489,342.847c0,0-28.398-10.327-84.222-55.366c-19.75-15.934-40.988-25.8-55.047-34.819   c-11.759-7.543-13.649-23.973-3.913-33.993l26.813-27.598c7.853-8.083,16.547-15.305,25.932-21.544l93.665-62.256" fill="none" stroke="#000000" stroke-linecap="round" stroke-linejoin="round" stroke-miterlimit="10" stroke-width="15"/><path d="   M258.493,17.56l4.736,95.266c0.484,9.727,4.177,19.02,10.503,26.426l9.351,10.948c21.249,24.877,57.53,30.4,85.219,12.973   l29.861-18.794c19.986-12.578,37.613-28.561,52.082-47.223l44.767-57.738" fill="none" stroke="#000000" stroke-linecap="round" stroke-linejoin="round" stroke-miterlimit="10" stroke-width="15"/><path d="   M379.781,339.818c0,0-3.047,10.12-6.045,20.143c-3.749,12.533-3.408,25.935,0.974,38.261l4.573,12.862   c6.869,19.318,19.496,36.064,36.18,47.981l31.955,22.825" fill="none" stroke="#000000" stroke-linecap="round" stroke-linejoin="round" stroke-miterlimit="10" stroke-width="15"/><line fill="none" stroke="#000000" stroke-linecap="round" stroke-linejoin="round" stroke-miterlimit="10" stroke-width="15" x1="339.742" x2="311.476" y1="381.052" y2="374.96"/><line fill="none" stroke="#000000" stroke-linecap="round" stroke-linejoin="round" stroke-miterlimit="10" stroke-width="15" x1="468.533" x2="473.159" y1="496.708" y2="500.101"/><path d="   M301.959,120.739c0,0,6.912-1.328,13.751-2.655c8.552-1.659,16.354-5.999,22.272-12.392l6.176-6.671   c9.276-10.019,15.256-22.641,17.133-36.165l2.639-19.003" fill="none" stroke="#000000" stroke-linecap="round" stroke-linejoin="round" stroke-miterlimit="10" stroke-width="15"/><path d="   M343.789,139.184l-1.04-3.756c-2.698-9.751-3.242-19.973-1.592-29.955l0.645-3.906" fill="none" stroke="#000000" stroke-linecap="round" stroke-linejoin="round" stroke-miterlimit="10" stroke-width="15"/><line fill="none" stroke="#000000" stroke-linecap="round" stroke-linejoin="round" stroke-miterlimit="10" stroke-width="15" x1="367.109" x2="367.682" y1="19.92" y2="16.143"/><path d="   M155.39,330.229L155.39,330.229c0,15.436-6.832,30.08-18.659,39.998l-34.242,28.713l-78.932,25.335" fill="none" stroke="#000000" stroke-linecap="round" stroke-linejoin="round" stroke-miterlimit="10" stroke-width="15"/><line fill="none" stroke="#000000" stroke-linecap="round" stroke-linejoin="round" stroke-miterlimit="10" stroke-width="15" x1="54.638" x2="102.489" y1="465.517" y2="398.941"/><line fill="none" stroke="#000000" stroke-linecap="round" stroke-linejoin="round" stroke-miterlimit="10" stroke-width="15" x1="36.622" x2="39.998" y1="490.583" y2="485.886"/><line fill="none" stroke="#000000" stroke-linecap="round" stroke-linejoin="round" stroke-miterlimit="10" stroke-width="15" x1="27.989" x2="37.811" y1="146.328" y2="153.463"/><line fill="none" stroke="#000000" stroke-linecap="round" stroke-linejoin="round" stroke-miterlimit="10" stroke-width="15" x1="60.039" x2="118.637" y1="168.734" y2="210.122"/><path d="   M140.498,366.732c0,0,17.862-11.43,35.519-11.43s17.657,0,17.657,0" fill="none" stroke="#000000" stroke-linecap="round" stroke-linejoin="round" stroke-miterlimit="10" stroke-width="15"/><path d="   M415.554,198.035c0,0,8.158,27.77-1.053,51.965" fill="none" stroke="#000000" stroke-linecap="round" stroke-linejoin="round" stroke-miterlimit="10" stroke-width="15"/><path d="   M130.946,187.679c0,0-19.381,26.101-12.732,58.321" fill="none" stroke="#000000" stroke-linecap="round" stroke-linejoin="round" stroke-miterlimit="10" stroke-width="15"/></g></svg>